<?xml version="1.0" encoding="utf-8"?>
<!-- Generator: Adobe Illustrator 19.0.1, SVG Export Plug-In . SVG Version: 6.00 Build 0)  -->
<svg version="1.1" id="Layer_1" xmlns="http://www.w3.org/2000/svg" xmlns:xlink="http://www.w3.org/1999/xlink" x="0px" y="0px"
	 viewBox="-217 219 64 64" enable-background="new -217 219 64 64" xml:space="preserve">
<path fill="#666666" d="M-156.4,228.1c-0.2,0-0.4,0-0.6,0.1l-56.3,17.6c-0.7,0.2-1.3,0.8-1.4,1.6s0.2,1.5,0.8,1.9l16.8,12.2v14.5
	c0,0.1,0.1,0.2,0.2,0.2c0.1,0,0.2,0,0.2-0.1l4.8-10.8l16.7,12.1c0.3,0.3,0.8,0.4,1.2,0.4c0.2,0,0.4,0,0.6-0.1
	c0.6-0.2,1.1-0.6,1.3-1.2l17.6-45.7c0.3-0.7,0.1-1.5-0.4-2.1C-155.3,228.4-155.8,228.1-156.4,228.1z M-173.9,275.9l-16.6-12.1
	l13-15.4l-18.1,11.6l-16.9-12.3l56.3-17.6L-173.9,275.9z"/>
</svg>
