<?xml version="1.0" encoding="utf-8"?>
<!-- Generator: Adobe Illustrator 19.0.1, SVG Export Plug-In . SVG Version: 6.00 Build 0)  -->
<svg version="1.1" id="Layer_1" xmlns="http://www.w3.org/2000/svg" xmlns:xlink="http://www.w3.org/1999/xlink" x="0px" y="0px"
	 viewBox="-217 219 64 64" enable-background="new -217 219 64 64" xml:space="preserve">
<path fill="#666666" d="M-170.3,271.8l-5.6,10.1c-0.3,0.6-1.1,0.8-1.6,0.5l-0.7-0.4c-0.2-0.1-0.4-0.3-0.5-0.6
	c-0.1-0.3,0-0.5,0.1-0.8l5.7-10.3L-170.3,271.8z M-153,259c0,6.6-5.4,12-12,12s-12-5.4-12-12s5.4-12,12-12S-153,252.4-153,259z
	 M-155,259c0-5.5-4.5-10-10-10s-10,4.5-10,10s4.5,10,10,10S-155,264.5-155,259z M-183,247.7c1.8,0.4,3.5,1,5.2,1.7
	c-0.4,0.5-0.8,1.1-1.1,1.6c-3.2-1.4-6.6-2.1-10.1-2.1c-9.2,0-17.8,4.9-22.5,12.9c-2.9,4.9-3.4,10.1-3.5,15c0,1.1,0.4,2.1,1.1,2.9
	s1.8,1.2,2.9,1.2h26v2h-26c-1.6,0-3.2-0.7-4.3-1.8c-1.1-1.2-1.7-2.7-1.7-4.3c0.1-5.5,0.8-10.9,3.8-16c4-6.7,10.7-11.5,18.2-13.1
	c-5.3-2.3-9-7.6-9-13.7c0-8.3,6.7-15,15-15s15,6.7,15,15C-174,240.1-177.7,245.4-183,247.7z M-176,234c0-7.2-5.8-13-13-13
	s-13,5.8-13,13s5.8,13,13,13S-176,241.2-176,234z"/>
</svg>
