<?xml version="1.0" encoding="utf-8"?>
<!-- Generator: Adobe Illustrator 19.1.0, SVG Export Plug-In . SVG Version: 6.00 Build 0)  -->
<svg version="1.1" id="Layer_1" xmlns="http://www.w3.org/2000/svg" xmlns:xlink="http://www.w3.org/1999/xlink" x="0px" y="0px"
	 viewBox="-217 219 64 64" style="enable-background:new -217 219 64 64;" xml:space="preserve">
<style type="text/css">
	.st0{fill:#D0B79F;}
</style>
<path class="st0" d="M-161,231.7c1.8-1.3,3-3.3,3-5.7c0-3.9-3.1-7-7-7s-7,3.1-7,7c0,2.4,1.2,4.4,3,5.7c-4.6,1.7-8,6.1-8,11.3v4
	c0,2.2,1.8,4,4,4h16c2.2,0,4-1.8,4-4v-4C-153,237.8-156.3,233.4-161,231.7z M-170,226c0-2.8,2.2-5,5-5s5,2.2,5,5s-2.2,5-5,5
	S-170,228.8-170,226z M-155,247c0,1.1-0.9,2-2,2h-16c-1.1,0-2-0.9-2-2v-4c0-5.5,4.5-10,10-10s10,4.5,10,10V247z M-213,251h16
	c2.2,0,4-1.8,4-4v-4c0-5.2-3.3-9.6-8-11.3c1.8-1.3,3-3.3,3-5.7c0-3.9-3.1-7-7-7s-7,3.1-7,7c0,2.4,1.2,4.4,3,5.7
	c-4.6,1.7-8,6.1-8,11.3v4C-217,249.2-215.2,251-213,251z M-210,226c0-2.8,2.2-5,5-5s5,2.2,5,5s-2.2,5-5,5S-210,228.8-210,226z
	 M-215,243c0-5.5,4.5-10,10-10s10,4.5,10,10v4c0,1.1-0.9,2-2,2h-16c-1.1,0-2-0.9-2-2V243z M-178,258c0-3.9-3.1-7-7-7s-7,3.1-7,7
	c0,2.4,1.2,4.4,3,5.7c-4.6,1.7-8,6.1-8,11.3v4c0,2.2,1.8,4,4,4h16c2.2,0,4-1.8,4-4v-4c0-5.2-3.3-9.6-8-11.3
	C-179.2,262.4-178,260.4-178,258z M-175,275v4c0,1.1-0.9,2-2,2h-16c-1.1,0-2-0.9-2-2v-4c0-5.5,4.5-10,10-10S-175,269.5-175,275z
	 M-190,258c0-2.8,2.2-5,5-5s5,2.2,5,5c0,2.8-2.2,5-5,5S-190,260.8-190,258z M-185,235.3v-3.9c-0.9,0-5.5-1.1-7.6,2.8
	c-0.1,0.2-0.4,0.1-0.4-0.1c0.1-2.3,0.8-7.5,8-7.5v-3.9c0-0.2,0.1-0.3,0.2-0.4c0.1-0.1,0.3,0,0.4,0.1l6.5,5.9
	c0.2,0.2,0.3,0.5,0.3,0.7s-0.1,0.6-0.3,0.7l-6.5,5.9c-0.1,0.1-0.3,0.1-0.4,0.1C-184.9,235.6-185,235.5-185,235.3z M-165,260.8v3.7
	c0.1,0.1,0.1,0.1,0.2,0.2c1.2,0.1,5.5,0.8,7.5-2.8c0.1-0.2,0.4-0.1,0.4,0.1c-0.1,2.3-0.8,7.4-7.8,7.5c-0.1,0.1-0.1,0.1-0.2,0.2v3.7
	c0,0.2-0.1,0.3-0.2,0.4c-0.1,0.1-0.3,0-0.4-0.1l-6.5-5.9c-0.2-0.2-0.3-0.5-0.3-0.7s0.1-0.6,0.3-0.7l6.5-5.9c0.1-0.1,0.3-0.1,0.4-0.1
	C-165.1,260.5-165,260.6-165,260.8z M-204.3,267.2c-0.1,1.2-0.8,5.5,2.8,7.5c0.2,0.1,0.1,0.4-0.1,0.4c-2.3-0.1-7.4-0.8-7.5-7.8
	c0-0.1-0.1-0.2-0.2-0.2h-3.7c-0.2,0-0.3-0.1-0.4-0.2c-0.1-0.1,0-0.3,0.1-0.4l5.9-6.5c0.2-0.2,0.5-0.3,0.7-0.3c0.3,0,0.6,0.1,0.7,0.3
	l5.9,6.5c0.1,0.1,0.1,0.3,0.1,0.4c-0.1,0.1-0.2,0.2-0.4,0.2h-3.7C-204.2,267-204.3,267.1-204.3,267.2z"/>
</svg>
