<?xml version="1.0" encoding="utf-8"?>
<!-- Generator: Adobe Illustrator 19.0.1, SVG Export Plug-In . SVG Version: 6.00 Build 0)  -->
<svg version="1.1" id="Layer_1" xmlns="http://www.w3.org/2000/svg" xmlns:xlink="http://www.w3.org/1999/xlink" x="0px" y="0px"
	 viewBox="-217 219 64 64" enable-background="new -217 219 64 64" xml:space="preserve">
<path fill="#666666" d="M-167,227h-18.1c-0.5-4.5-4.3-8-8.9-8s-8.4,3.5-8.9,8h-0.1c-4.4,0-8,3.6-8,8v40c0,4.4,3.6,8,8,8h36
	c4.4,0,8-3.6,8-8v-40C-159,230.6-162.6,227-167,227z M-194,221c3.5,0,6.4,2.6,6.9,6h-13.8C-200.4,223.6-197.5,221-194,221z
	 M-161,275c0,3.3-2.7,6-6,6h-36c-3.3,0-6-2.7-6-6v-40c0-3.3,2.7-6,6-6v26c0,3.3,2.7,6,6,6s6-2.7,6-6v-17c0-0.6-0.4-1-1-1s-1,0.4-1,1
	v17c0,2.2-1.8,4-4,4s-4-1.8-4-4v-26h28h6c3.3,0,6,2.7,6,6V275z M-165,243h-20v-2h20V243z M-165,249h-20v-2h20V249z M-165,255h-20v-2
	h20V255z M-165,261h-20v-2h20V261z M-165,267h-40v-2h40V267z M-165,273h-40v-2h40V273z"/>
</svg>
