<?xml version="1.0" encoding="utf-8"?>
<!-- Generator: Adobe Illustrator 19.0.1, SVG Export Plug-In . SVG Version: 6.00 Build 0)  -->
<svg version="1.1" id="Layer_1" xmlns="http://www.w3.org/2000/svg" xmlns:xlink="http://www.w3.org/1999/xlink" x="0px" y="0px"
	 viewBox="-217 219 64 64" enable-background="new -217 219 64 64" xml:space="preserve">
<path fill="#FFFFFF" d="M-169,281v-14h-9.8c-0.4,0-0.7-0.2-0.9-0.6c-0.2-0.4-0.1-0.8,0.2-1.1l11.8-13.5c0.2-0.2,0.5-0.3,0.8-0.3
	s0.6,0.1,0.8,0.3l11.8,13.5c0.3,0.3,0.3,0.7,0.2,1.1c-0.2,0.4-0.5,0.6-0.9,0.6h-9.8v14c0,1.1-0.9,2-2,2S-169,282.1-169,281z
	 M-185,219c-17.7,0-32,14.3-32,32s14.3,32,32,32c1.4,0,2.7-0.1,4-0.3v-4c-1.3,0.2-2.6,0.3-4,0.3c-15.4,0-28-12.6-28-28
	s12.6-28,28-28c14.1,0,25.7,10.5,27.7,24h4C-155.2,231.2-168.7,219-185,219z"/>
</svg>
