<?xml version="1.0" encoding="utf-8"?>
<!-- Generator: Adobe Illustrator 19.0.1, SVG Export Plug-In . SVG Version: 6.00 Build 0)  -->
<svg version="1.1" id="Layer_1" xmlns="http://www.w3.org/2000/svg" xmlns:xlink="http://www.w3.org/1999/xlink" x="0px" y="0px"
	 viewBox="-217 219 64 64" enable-background="new -217 219 64 64" xml:space="preserve">
<path fill="#5C91CD" d="M-185,231c-19.4,0-28.4,13.1-31.1,18.1c-0.6,1.2-0.6,2.6,0,3.8c2.7,5,11.7,18.1,31.1,18.1
	s28.4-13.1,31.1-18.1c0.6-1.2,0.6-2.6,0-3.8C-156.6,244.1-165.6,231-185,231z M-185,267c-17,0-24.9-11.2-27.6-16
	c2.6-4.8,10.5-16,27.6-16s24.9,11.2,27.6,16C-160.1,255.8-168,267-185,267z M-185,239c-6.6,0-12,5.4-12,12c0,6.6,5.4,12,12,12
	c6.6,0,12-5.4,12-12C-173,244.4-178.4,239-185,239z M-181,251c-2.2,0-4-1.8-4-4s1.8-4,4-4s4,1.8,4,4S-178.8,251-181,251z"/>
</svg>
