<?xml version="1.0" encoding="utf-8"?>
<!-- Generator: Adobe Illustrator 19.0.1, SVG Export Plug-In . SVG Version: 6.00 Build 0)  -->
<svg version="1.1" id="Layer_1" xmlns="http://www.w3.org/2000/svg" xmlns:xlink="http://www.w3.org/1999/xlink" x="0px" y="0px"
	 viewBox="-217 219 64 64" enable-background="new -217 219 64 64" xml:space="preserve">
<path fill="#D2CECE" d="M-185,231c-19.4,0-28.4,13.1-31.1,18.1c-0.6,1.2-0.6,2.6,0,3.8c2.7,5,11.7,18.1,31.1,18.1
	s28.4-13.1,31.1-18.1c0.6-1.2,0.6-2.6,0-3.8C-156.6,244.1-165.6,231-185,231z M-155.7,252c-2.8,5.1-11.2,17-29.3,17
	s-26.5-11.9-29.3-17c-0.3-0.6-0.3-1.3,0-1.9c2.8-5.1,11.2-17,29.3-17s26.5,11.9,29.3,17C-155.4,250.6-155.4,251.4-155.7,252z
	 M-185,239c-6.6,0-12,5.4-12,12c0,6.6,5.4,12,12,12c6.6,0,12-5.4,12-12S-178.4,239-185,239z M-181,251c-2.2,0-4-1.8-4-4s1.8-4,4-4
	s4,1.8,4,4S-178.8,251-181,251z"/>
</svg>
