<?xml version="1.0" encoding="utf-8"?>
<!-- Generator: Adobe Illustrator 19.0.1, SVG Export Plug-In . SVG Version: 6.00 Build 0)  -->
<svg version="1.1" id="Layer_1" xmlns="http://www.w3.org/2000/svg" xmlns:xlink="http://www.w3.org/1999/xlink" x="0px" y="0px"
	 viewBox="-217 219 64 64" enable-background="new -217 219 64 64" xml:space="preserve">
<path fill="#154F8B" d="M-153,251c0,17.7-14.3,32-32,32s-32-14.3-32-32s14.3-32,32-32c7.3,0,14.1,2.5,19.5,6.7c0,0,0.1,0.1,0.1,0.1
	l-1.4,1.4c-5-3.9-11.3-6.2-18.2-6.2c-16.5,0-30,13.5-30,30c0,16.5,13.5,30,30,30s30-13.5,30-30c0-0.5-0.1-1.1-0.1-1.6l1.9-1.9
	c0,0,0,0,0,0C-153.1,248.7-153,249.8-153,251z M-158.1,235.4c-0.4-0.4-1-0.4-1.4,0l-24.7,24.7l-10.6-10.6c-0.4-0.4-1-0.4-1.4,0
	c-0.2,0.2-0.3,0.4-0.3,0.7c0,0.3,0.1,0.5,0.3,0.7l11.3,11.3c0.2,0.2,0.4,0.3,0.7,0.3c0.3,0,0.5-0.1,0.7-0.3l25.5-25.5
	C-157.7,236.4-157.7,235.8-158.1,235.4z"/>
</svg>
