<?xml version="1.0" encoding="UTF-8" standalone="no"?>
<svg width="40px" height="40px" viewBox="0 0 40 40" version="1.1" xmlns="http://www.w3.org/2000/svg" xmlns:xlink="http://www.w3.org/1999/xlink" xmlns:sketch="http://www.bohemiancoding.com/sketch/ns">
    <!-- Generator: Sketch 3.3.3 (12072) - http://www.bohemiancoding.com/sketch -->
    <title>icon_email</title>
    <desc>Created with Sketch.</desc>
    <defs></defs>
    <g id="Page-1" stroke="none" stroke-width="1" fill="none" fill-rule="evenodd" sketch:type="MSPage">
        <g id="icon_email" sketch:type="MSLayerGroup" fill="#434343">
            <g id="Group" sketch:type="MSShapeGroup">
                <g id="icon-at-sign">
                    <path d="M34.1,5.9 C30.4,2.1 25.3,0 20,0 C14.7,0 9.6,2.1 5.9,5.9 C2.1,9.6 0,14.7 0,20 C0,25.3 2.1,30.4 5.9,34.1 C9.6,37.9 14.7,40 20,40 C23.1,40 26.1,39.3 28.9,37.9 C31.6,36.6 33.9,34.6 35.8,32.3 C36.1,31.9 36.1,31.2 35.6,30.9 C35.2,30.6 34.5,30.6 34.2,31.1 C30.8,35.5 25.6,38.1 20,38.1 C10.1,38.1 2,30 2,20.1 C2,10.2 10.1,2 20,2 C29.9,2 38,10.1 38,20 C38,23.5 35.9,26 33,26 C30.2,26 28,23.8 28,21 L28,13 C28,12.4 27.6,12 27,12 C26.4,12 26,12.4 26,13 L26,14.7 C24.5,13 22.4,12 20,12 C15.6,12 12,15.6 12,20 C12,24.4 15.6,28 20,28 C22.9,28 25.4,26.5 26.8,24.2 C28,26.5 30.3,28 33,28 C34.9,28 36.7,27.2 38,25.8 C39.3,24.3 40,22.3 40,20 C40,14.7 37.9,9.6 34.1,5.9 L34.1,5.9 Z M20,26 C16.7,26 14,23.3 14,20 C14,16.7 16.7,14 20,14 C23.3,14 26,16.7 26,20 C26,23.3 23.3,26 20,26 L20,26 Z" id="Shape"></path>
                </g>
            </g>
        </g>
    </g>
</svg>