<?xml version="1.0" encoding="utf-8"?>
<!-- Generator: Adobe Illustrator 19.1.0, SVG Export Plug-In . SVG Version: 6.00 Build 0)  -->
<svg version="1.1" id="Layer_1" xmlns="http://www.w3.org/2000/svg" xmlns:xlink="http://www.w3.org/1999/xlink" x="0px" y="0px"
	 viewBox="-185 187 128 128" style="enable-background:new -185 187 128 128;" xml:space="preserve">
<style type="text/css">
	.st0{fill:#D0B79F;}
</style>
<path class="st0" d="M-169,187c-8.8,0-16,7.2-16,16v64c0,8.8,7.2,16,16,16h44v28h-36v4h80v-4h-36v-28h44c8.8,0,16-7.2,16-16v-64
	c0-8.8-7.2-16-16-16H-169z M-61,267c0,6.6-5.4,12-12,12h-96c-6.6,0-12-5.4-12-12v-64c0-6.6,5.4-12,12-12h96c6.6,0,12,5.4,12,12V267z
	 M-73,220.1c0,0.5-0.3,0.9-0.7,1.1c-0.4,0.2-1,0.1-1.3-0.3l-6.2-6.2l-30.2,33.6c-0.4,0.4-0.9,0.7-1.5,0.7c-0.6,0-1.1-0.3-1.5-0.7
	l-22.3-26l-25.4,36.2c-0.6,0.9-1.9,1.1-2.8,0.5c-0.4-0.3-0.7-0.8-0.8-1.3c-0.1-0.5,0-1.1,0.3-1.5l26.9-38.4c0.4-0.5,0.9-0.8,1.5-0.9
	c0.6,0,1.2,0.2,1.6,0.7L-113,244l28.9-32.1L-91,205c-0.3-0.3-0.4-0.9-0.3-1.3s0.6-0.7,1.1-0.7H-75c1.1,0,2,0.9,2,2V220.1z"/>
</svg>
