<?xml version="1.0" encoding="UTF-8" standalone="no"?>
<svg width="45px" height="44px" viewBox="0 0 45 44" version="1.1" xmlns="http://www.w3.org/2000/svg" xmlns:xlink="http://www.w3.org/1999/xlink" xmlns:sketch="http://www.bohemiancoding.com/sketch/ns">
    <!-- Generator: Sketch 3.3.3 (12072) - http://www.bohemiancoding.com/sketch -->
    <title>icon_call</title>
    <desc>Created with Sketch.</desc>
    <defs></defs>
    <g id="Page-1" stroke="none" stroke-width="1" fill="none" fill-rule="evenodd" sketch:type="MSPage">
        <g id="icon_call" sketch:type="MSLayerGroup" fill="#5986BA">
            <g id="Group" sketch:type="MSShapeGroup">
                <g id="icon-phone">
                    <path d="M35.3,44 C31.4,44 27.2,42.9 23,40.7 C19,38.7 15.1,35.8 11.7,32.4 C8.3,29 5.4,25.1 3.4,21.1 C1.1,16.8 0,12.7 0,8.8 C0,6.3 2.4,3.8 3.4,2.9 C4.9,1.5 7.1,0 8.8,0 C9.6,0 10.6,0.5 11.9,1.7 C12.8,2.6 13.9,3.7 14.9,5.1 C15.5,5.9 18.7,10.1 18.7,12.1 C18.7,13.7 16.8,14.9 14.9,16.1 C14.1,16.6 13.3,17.1 12.8,17.5 C12.2,18 12.1,18.2 12.1,18.3 C14.2,23.5 20.6,29.9 25.8,32 C25.8,32 26.1,31.9 26.6,31.3 C27.1,30.7 27.5,29.9 28,29.2 C29.2,27.2 30.4,25.4 32,25.4 C34,25.4 38.2,28.6 39,29.2 C40.4,30.3 41.5,31.3 42.4,32.2 C43.6,33.5 44.1,34.4 44.1,35.3 C44.1,37 42.5,39.3 41.2,40.7 C40.2,41.7 37.8,44 35.3,44 L35.3,44 L35.3,44 Z M8.8,2.2 C8.2,2.2 6.6,2.9 4.9,4.5 C3.2,6 2.2,7.6 2.2,8.8 C2.2,23.6 20.4,41.9 35.2,41.9 C36.3,41.9 38,40.9 39.5,39.2 C41.1,37.5 41.8,35.9 41.8,35.3 C41.7,34.9 40.6,33.3 37.4,30.8 C34.7,28.7 32.5,27.6 31.9,27.6 C31.9,27.6 31.6,27.7 31.1,28.3 C30.7,28.9 30.2,29.6 29.8,30.3 C28.6,32.3 27.4,34.2 25.7,34.2 C25.4,34.2 25.2,34.1 24.9,34 C19.1,31.7 12.3,24.8 10,19.1 C9.7,18.4 9.7,17.3 11,16.1 C11.7,15.4 12.7,14.8 13.7,14.2 C14.4,13.8 15.2,13.3 15.7,12.8 C16.3,12.3 16.4,12.1 16.4,12 C16.4,11.4 15.3,9.2 13.2,6.5 C10.8,3.4 9.2,2.2 8.8,2.2 L8.8,2.2 L8.8,2.2 Z" id="Shape"></path>
                </g>
            </g>
        </g>
    </g>
</svg>