<?xml version="1.0" encoding="utf-8"?>
<!-- Generator: Adobe Illustrator 19.0.1, SVG Export Plug-In . SVG Version: 6.00 Build 0)  -->
<svg version="1.1" id="Layer_1" xmlns="http://www.w3.org/2000/svg" xmlns:xlink="http://www.w3.org/1999/xlink" x="0px" y="0px"
	 viewBox="-217 219 64 64" enable-background="new -217 219 64 64" xml:space="preserve">
<path fill="#666666" d="M-153,247c0,15.1-12,27.4-27,28c-0.3,0-0.5-0.1-0.7-0.3c-0.2-0.2-0.3-0.4-0.3-0.7v-0.1
	c0-0.5,0.4-0.9,0.9-0.9c13.9-0.5,25.1-12,25.1-26c0-14.3-11.7-26-26-26c-14,0-25.5,11.2-26,25.1c0,0.5-0.4,0.9-0.9,0.9h-0.1
	c-0.3,0-0.5-0.1-0.7-0.3c-0.2-0.2-0.3-0.5-0.3-0.7c0.5-15,12.9-27,28-27C-165.5,219-153,231.5-153,247z M-196,267h2c0.6,0,1-0.4,1-1
	v-2c0-0.6-0.4-1-1-1h-2c-0.6,0-1,0.4-1,1v2C-197,266.6-196.6,267-196,267z M-194,273h-14.2c-0.2,0-0.3,0.1-0.4,0.2
	c-0.1,0.1,0,0.3,0.1,0.4c1.8,2,4.4,3.3,7.4,3.3s5.6-1.3,7.4-3.3c0.1-0.1,0.1-0.3,0.1-0.4C-193.7,273.1-193.8,273-194,273z M-217,267
	c0-3.8,1.3-7.3,3.5-10c2.9-3.7,7.4-6,12.5-6s9.5,2.3,12.5,6c2.2,2.7,3.5,6.2,3.5,10c0,8.8-7.2,16-16,16S-217,275.8-217,267z
	 M-215,267c0,7.7,6.3,14,14,14s14-6.3,14-14c0-3.9-1.6-7.5-4.2-10h-19.6C-213.4,259.5-215,263.1-215,267z M-208,267h2
	c0.6,0,1-0.4,1-1v-2c0-0.6-0.4-1-1-1h-2c-0.6,0-1,0.4-1,1v2C-209,266.6-208.6,267-208,267z M-181.9,231h-0.1c-0.5,0-0.9,0.4-0.9,0.9
	V248c0,0.6,0.4,1,1,1h14.1c0.5,0,0.9-0.4,0.9-0.9v-0.1c0-0.5-0.4-0.9-0.9-0.9H-181v-15.1C-181,231.4-181.4,231-181.9,231z"/>
</svg>
