<?xml version="1.0" encoding="utf-8"?>
<!-- Generator: Adobe Illustrator 19.0.1, SVG Export Plug-In . SVG Version: 6.00 Build 0)  -->
<svg version="1.1" id="Layer_1" xmlns="http://www.w3.org/2000/svg" xmlns:xlink="http://www.w3.org/1999/xlink" x="0px" y="0px"
	 viewBox="-217 219 64 64" enable-background="new -217 219 64 64" xml:space="preserve">
<path fill="#5C91CD" d="M-193,231l-3.3-9.9c-0.3-1,0.4-2.1,1.5-2.1h15.6c1.1,0,1.9,1.1,1.5,2.1l-3.3,9.9H-193z M-181,235l7.7,34.8
	c0.2,0.7-0.1,1.5-0.6,2l-11.8,10.1c-0.4,0.3-0.8,0.5-1.3,0.5c-0.5,0-0.9-0.2-1.3-0.5l-11.8-10.1c-0.6-0.5-0.8-1.2-0.7-2l7.7-34.8
	H-181z M-177.4,269.5l-6.8-30.5h-5.6l-6.8,30.5l9.6,8.2L-177.4,269.5z"/>
</svg>
