<?xml version="1.0" encoding="utf-8"?>
<!-- Generator: Adobe Illustrator 19.0.1, SVG Export Plug-In . SVG Version: 6.00 Build 0)  -->
<svg version="1.1" id="Layer_1" xmlns="http://www.w3.org/2000/svg" xmlns:xlink="http://www.w3.org/1999/xlink" x="0px" y="0px"
	 viewBox="-217 219 64 64" enable-background="new -217 219 64 64" xml:space="preserve">
<path fill="#154F8B" d="M-182,264v2c0,0.6-0.4,1-1,1h-2c-0.6,0-1-0.4-1-1v-2c0-0.6,0.4-1,1-1h2C-182.4,263-182,263.4-182,264z
	 M-185,235c-9.7,0-10,8.9-10,9v2c0,0.6,0.4,1,1,1s1-0.4,1-1v-2c0-0.3,0.2-7,8-7c2.4,0,4.2,0.7,5.4,2c1.8,2,1.6,4.9,1.6,5.2
	c-0.3,2.8-1.6,4-3.3,5.5c-0.3,0.2-0.5,0.5-0.8,0.8c-1.9,1.8-2.9,3.8-2.9,5.9c0,0.1,0,0.9,0,1.6c0,0.6,0.4,1,1,1
	c0.3,0,0.5-0.1,0.7-0.3c0.2-0.2,0.3-0.4,0.3-0.7c0-0.7,0-1.5,0-1.5c0-1.6,0.8-3.1,2.3-4.5c0.3-0.2,0.5-0.5,0.8-0.7
	c1.8-1.6,3.6-3.2,3.9-6.8c0.1-0.7,0.3-4.2-2.1-6.8C-179.7,235.9-182,235-185,235z M-185,221c-16.5,0-30,13.5-30,30s13.5,30,30,30
	s30-13.5,30-30S-168.5,221-185,221 M-185,219c17.7,0,32,14.3,32,32s-14.3,32-32,32s-32-14.3-32-32S-202.7,219-185,219L-185,219z"/>
</svg>
