<?xml version="1.0" encoding="utf-8"?>
<!-- Generator: Adobe Illustrator 19.0.1, SVG Export Plug-In . SVG Version: 6.00 Build 0)  -->
<svg version="1.1" id="Layer_1" xmlns="http://www.w3.org/2000/svg" xmlns:xlink="http://www.w3.org/1999/xlink" x="0px" y="0px"
	 viewBox="-217 219 64 64" enable-background="new -217 219 64 64" xml:space="preserve">
<path fill="#5C91CD" d="M-153,227v48c0,4.4-3.6,8-8,8h-12v-4h12c2.2,0,4-1.8,4-4v-48c0-2.2-1.8-4-4-4h-36c-2.2,0-4,1.8-4,4v12h-4
	v-12c0-4.4,3.6-8,8-8h36C-156.6,219-153,222.6-153,227z M-217,279v-32c0-2.2,1.8-4,4-4h16c2.2,0,4,1.8,4,4v8h12c2.2,0,4,1.8,4,4v20
	c0,2.2-1.8,4-4,4h-32C-215.2,283-217,281.2-217,279z M-193,279h4v-8h4v8h4v-20h-12V279z M-213,279h4v-8h8v8h4v-20v-12h-16V279z
	 M-201,251h-8v4h8V251z M-185,263h-4v4h4V263z M-201,259h-8v4h8V259z"/>
</svg>
