<?xml version="1.0" encoding="utf-8"?>
<!-- Generator: Adobe Illustrator 19.1.0, SVG Export Plug-In . SVG Version: 6.00 Build 0)  -->
<svg version="1.1" id="Layer_1" xmlns="http://www.w3.org/2000/svg" xmlns:xlink="http://www.w3.org/1999/xlink" x="0px" y="0px"
	 viewBox="-217 219 64 64" style="enable-background:new -217 219 64 64;" xml:space="preserve">
<style type="text/css">
	.st0{fill:#D0B79F;}
</style>
<path class="st0" d="M-202,243c0-2.2,1.8-4,4-4s4,1.8,4,4s-1.8,4-4,4S-202,245.2-202,243z M-172,247c2.2,0,4-1.8,4-4s-1.8-4-4-4
	s-4,1.8-4,4S-174.2,247-172,247z M-153,251c0,17.7-14.3,32-32,32s-32-14.3-32-32s14.3-32,32-32S-153,233.3-153,251z M-155,251
	c0-16.5-13.5-30-30-30s-30,13.5-30,30s13.5,30,30,30S-155,267.5-155,251z M-207,251h44c0,12.1-9.9,22-22,22S-207,263.1-207,251z
	 M-165.1,253h-39.8c1,10.1,9.5,18,19.9,18C-174.6,271-166.1,263.1-165.1,253z"/>
</svg>
