<?xml version="1.0" encoding="UTF-8" standalone="no"?>
<svg width="48px" height="48px" viewBox="0 0 48 48" version="1.1" xmlns="http://www.w3.org/2000/svg" xmlns:xlink="http://www.w3.org/1999/xlink" xmlns:sketch="http://www.bohemiancoding.com/sketch/ns">
    <!-- Generator: Sketch 3.3.3 (12072) - http://www.bohemiancoding.com/sketch -->
    <title>icon_call</title>
    <desc>Created with Sketch.</desc>
    <defs></defs>
    <g id="Page-1" stroke="none" stroke-width="1" fill="none" fill-rule="evenodd" sketch:type="MSPage">
        <g id="icon_call" sketch:type="MSLayerGroup" fill="#434343">
            <g id="Group" sketch:type="MSShapeGroup">
                <g id="icon-phone">
                    <path d="M37.8,47.1 C33.7,47.1 29.2,45.9 24.7,43.6 C20.5,41.5 16.4,38.4 12.7,34.7 C9.1,31 6,26.9 3.9,22.7 C1.6,18.1 0.4,13.7 0.4,9.6 C0.4,6.9 2.9,4.3 4,3.3 C5.5,1.9 8,0.2 9.8,0.2 C10.7,0.2 11.7,0.8 13,2 C14,2.9 15.1,4.2 16.2,5.6 C16.9,6.5 20.3,10.9 20.3,13.1 C20.3,14.9 18.3,16.1 16.2,17.4 C15.4,17.9 14.6,18.4 13.9,18.9 C13.3,19.4 13.1,19.7 13.1,19.8 C15.3,25.3 22.1,32.1 27.7,34.4 C27.7,34.4 28,34.3 28.5,33.6 C29,33 29.5,32.2 30,31.3 C31.3,29.2 32.5,27.2 34.3,27.2 C36.4,27.2 40.9,30.6 41.8,31.3 C43.2,32.4 44.5,33.5 45.4,34.5 C46.6,35.8 47.2,36.9 47.2,37.7 C47.2,39.5 45.5,41.9 44.1,43.5 C43.1,44.6 40.5,47.1 37.8,47.1 L37.8,47.1 L37.8,47.1 Z M9.7,2.6 C9.1,2.6 7.4,3.4 5.5,5.1 C3.8,6.7 2.7,8.4 2.7,9.7 C2.7,25.5 22.1,44.8 37.8,44.8 C39,44.8 40.7,43.7 42.4,42 C44.1,40.2 44.9,38.5 44.9,37.8 C44.8,37.4 43.6,35.6 40.2,33 C37.3,30.8 35,29.6 34.4,29.6 C34.4,29.6 34.1,29.7 33.6,30.4 C33.1,31 32.6,31.8 32.2,32.6 C30.9,34.7 29.6,36.8 27.8,36.8 C27.5,36.8 27.2,36.7 26.9,36.6 C20.8,34.1 13.5,26.9 11,20.7 C10.7,20 10.7,18.8 12.1,17.5 C12.9,16.8 13.9,16.1 15,15.5 C15.8,15 16.6,14.5 17.2,14.1 C17.9,13.6 18,13.3 18,13.3 C18,12.7 16.8,10.3 14.6,7.5 C11.8,3.9 10.1,2.7 9.7,2.6 L9.7,2.6 L9.7,2.6 Z" id="Shape"></path>
                </g>
            </g>
        </g>
    </g>
</svg>